<?xml version="1.0" encoding="UTF-8" standalone="no"?>
<!DOCTYPE svg PUBLIC "-//W3C//DTD SVG 1.1//EN"
 "http://www.w3.org/Graphics/SVG/1.1/DTD/svg11.dtd">
<!-- Generated by graphviz version 2.36.0 (20140111.2315)
 -->
<!-- Title: %1467 Pages: 1 -->
<svg width="994pt" height="548pt"
 viewBox="0.00 0.00 994.00 548.00" xmlns="http://www.w3.org/2000/svg" xmlns:xlink="http://www.w3.org/1999/xlink">
<g id="graph0" class="graph" transform="scale(1 1) rotate(0) translate(4 544)">
<title>%1467</title>
<polygon fill="white" stroke="none" points="-4,4 -4,-544 990,-544 990,4 -4,4"/>
<!-- ForStatement -->
<g id="node1" class="node"><title>ForStatement</title>
<ellipse fill="none" stroke="black" cx="590" cy="-522" rx="57.1382" ry="18"/>
<text text-anchor="middle" x="590" y="-517.8" font-family="Times,serif" font-size="14.00">ForStatement</text>
</g>
<!-- init -->
<g id="node2" class="node"><title>init</title>
<ellipse fill="none" stroke="black" cx="360" cy="-450" rx="27" ry="18"/>
<text text-anchor="middle" x="360" y="-445.8" font-family="Times,serif" font-size="14.00">init</text>
</g>
<!-- ForStatement&#45;&gt;init -->
<g id="edge1" class="edge"><title>ForStatement&#45;&gt;init</title>
<path fill="none" stroke="black" d="M550.2,-508.887C506.014,-495.439 435.453,-473.964 393.832,-461.297"/>
<polygon fill="black" stroke="black" points="394.743,-457.916 384.157,-458.352 392.705,-464.612 394.743,-457.916"/>
</g>
<!-- test -->
<g id="node3" class="node"><title>test</title>
<ellipse fill="none" stroke="black" cx="524" cy="-450" rx="27" ry="18"/>
<text text-anchor="middle" x="524" y="-445.8" font-family="Times,serif" font-size="14.00">test</text>
</g>
<!-- ForStatement&#45;&gt;test -->
<g id="edge2" class="edge"><title>ForStatement&#45;&gt;test</title>
<path fill="none" stroke="black" d="M574.359,-504.411C565.489,-495.004 554.28,-483.115 544.69,-472.944"/>
<polygon fill="black" stroke="black" points="547.145,-470.445 537.738,-465.57 542.051,-475.247 547.145,-470.445"/>
</g>
<!-- update -->
<g id="node4" class="node"><title>update</title>
<ellipse fill="none" stroke="black" cx="656" cy="-450" rx="33.5181" ry="18"/>
<text text-anchor="middle" x="656" y="-445.8" font-family="Times,serif" font-size="14.00">update</text>
</g>
<!-- ForStatement&#45;&gt;update -->
<g id="edge3" class="edge"><title>ForStatement&#45;&gt;update</title>
<path fill="none" stroke="black" d="M605.641,-504.411C614.183,-495.351 624.895,-483.99 634.241,-474.078"/>
<polygon fill="black" stroke="black" points="637.062,-476.188 641.375,-466.511 631.969,-471.386 637.062,-476.188"/>
</g>
<!-- body -->
<g id="node5" class="node"><title>body</title>
<ellipse fill="none" stroke="black" cx="819" cy="-450" rx="27.1951" ry="18"/>
<text text-anchor="middle" x="819" y="-445.8" font-family="Times,serif" font-size="14.00">body</text>
</g>
<!-- ForStatement&#45;&gt;body -->
<g id="edge4" class="edge"><title>ForStatement&#45;&gt;body</title>
<path fill="none" stroke="black" d="M629.627,-508.887C673.503,-495.475 743.497,-474.079 784.981,-461.399"/>
<polygon fill="black" stroke="black" points="786.09,-464.72 794.63,-458.449 784.043,-458.026 786.09,-464.72"/>
</g>
<!-- VariableDeclaration -->
<g id="node6" class="node"><title>VariableDeclaration</title>
<ellipse fill="none" stroke="black" cx="240" cy="-378" rx="80.2249" ry="18"/>
<text text-anchor="middle" x="240" y="-373.8" font-family="Times,serif" font-size="14.00">VariableDeclaration</text>
</g>
<!-- init&#45;&gt;VariableDeclaration -->
<g id="edge5" class="edge"><title>init&#45;&gt;VariableDeclaration</title>
<path fill="none" stroke="black" d="M340.184,-437.441C322.827,-427.315 297.164,-412.346 276.158,-400.092"/>
<polygon fill="black" stroke="black" points="277.88,-397.045 267.479,-395.029 274.353,-403.091 277.88,-397.045"/>
</g>
<!-- BinaryExpression -->
<g id="node12" class="node"><title>BinaryExpression</title>
<ellipse fill="none" stroke="black" cx="497" cy="-378" rx="80.5094" ry="18"/>
<text text-anchor="middle" x="497" y="-373.8" font-family="Times,serif" font-size="14.00">BinaryExpression &lt;</text>
</g>
<!-- test&#45;&gt;BinaryExpression -->
<g id="edge11" class="edge"><title>test&#45;&gt;BinaryExpression</title>
<path fill="none" stroke="black" d="M517.601,-432.411C514.486,-424.335 510.666,-414.431 507.165,-405.355"/>
<polygon fill="black" stroke="black" points="510.405,-404.027 503.54,-395.956 503.874,-406.546 510.405,-404.027"/>
</g>
<!-- UpdateExpression -->
<g id="node19" class="node"><title>UpdateExpression</title>
<ellipse fill="none" stroke="black" cx="683" cy="-378" rx="87.1932" ry="18"/>
<text text-anchor="middle" x="683" y="-373.8" font-family="Times,serif" font-size="14.00">UpdateExpression ++</text>
</g>
<!-- update&#45;&gt;UpdateExpression -->
<g id="edge18" class="edge"><title>update&#45;&gt;UpdateExpression</title>
<path fill="none" stroke="black" d="M662.536,-432.055C665.575,-424.176 669.262,-414.617 672.665,-405.794"/>
<polygon fill="black" stroke="black" points="676.003,-406.865 676.337,-396.275 669.472,-404.346 676.003,-406.865"/>
</g>
<!-- ExpressionStatement -->
<g id="node21" class="node"><title>ExpressionStatement</title>
<ellipse fill="none" stroke="black" cx="877" cy="-378" rx="84.1583" ry="18"/>
<text text-anchor="middle" x="877" y="-373.8" font-family="Times,serif" font-size="14.00">ExpressionStatement</text>
</g>
<!-- body&#45;&gt;ExpressionStatement -->
<g id="edge20" class="edge"><title>body&#45;&gt;ExpressionStatement</title>
<path fill="none" stroke="black" d="M831.585,-433.811C838.769,-425.141 847.957,-414.052 856.187,-404.12"/>
<polygon fill="black" stroke="black" points="859.124,-406.06 862.809,-396.127 853.734,-401.594 859.124,-406.06"/>
</g>
<!-- VariableDeclarator -->
<g id="node7" class="node"><title>VariableDeclarator</title>
<ellipse fill="none" stroke="black" cx="161" cy="-306" rx="76.3237" ry="18"/>
<text text-anchor="middle" x="161" y="-301.8" font-family="Times,serif" font-size="14.00">VariableDeclarator</text>
</g>
<!-- VariableDeclaration&#45;&gt;VariableDeclarator -->
<g id="edge6" class="edge"><title>VariableDeclaration&#45;&gt;VariableDeclarator</title>
<path fill="none" stroke="black" d="M221.278,-360.411C211.144,-351.432 198.46,-340.193 187.345,-330.344"/>
<polygon fill="black" stroke="black" points="189.393,-327.482 179.588,-323.47 184.751,-332.721 189.393,-327.482"/>
</g>
<!-- id_0 -->
<g id="node8" class="node"><title>id_0</title>
<ellipse fill="none" stroke="black" cx="93" cy="-234" rx="27" ry="18"/>
<text text-anchor="middle" x="93" y="-229.8" font-family="Times,serif" font-size="14.00">id</text>
</g>
<!-- VariableDeclarator&#45;&gt;id_0 -->
<g id="edge7" class="edge"><title>VariableDeclarator&#45;&gt;id_0</title>
<path fill="none" stroke="black" d="M144.539,-288.055C135.393,-278.64 123.915,-266.824 114.114,-256.735"/>
<polygon fill="black" stroke="black" points="116.491,-254.159 107.012,-249.424 111.47,-259.036 116.491,-254.159"/>
</g>
<!-- init_0 -->
<g id="node9" class="node"><title>init_0</title>
<ellipse fill="none" stroke="black" cx="197" cy="-234" rx="27" ry="18"/>
<text text-anchor="middle" x="197" y="-229.8" font-family="Times,serif" font-size="14.00">init</text>
</g>
<!-- VariableDeclarator&#45;&gt;init_0 -->
<g id="edge8" class="edge"><title>VariableDeclarator&#45;&gt;init_0</title>
<path fill="none" stroke="black" d="M169.715,-288.055C173.977,-279.767 179.197,-269.618 183.925,-260.424"/>
<polygon fill="black" stroke="black" points="187.153,-261.801 188.614,-251.307 180.927,-258.599 187.153,-261.801"/>
</g>
<!-- Identifier0 -->
<g id="node10" class="node"><title>Identifier0</title>
<ellipse fill="none" stroke="black" cx="77" cy="-162" rx="77.3284" ry="18"/>
<text text-anchor="middle" x="77" y="-157.8" font-family="Times,serif" font-size="14.00">Identifier [name=i]</text>
</g>
<!-- id_0&#45;&gt;Identifier0 -->
<g id="edge9" class="edge"><title>id_0&#45;&gt;Identifier0</title>
<path fill="none" stroke="black" d="M89.1268,-216.055C87.3453,-208.261 85.1879,-198.822 83.1895,-190.079"/>
<polygon fill="black" stroke="black" points="86.589,-189.244 80.9486,-180.275 79.765,-190.804 86.589,-189.244"/>
</g>
<!-- Literal0 -->
<g id="node11" class="node"><title>Literal0</title>
<ellipse fill="none" stroke="black" cx="213" cy="-162" rx="39.963" ry="18"/>
<text text-anchor="middle" x="213" y="-157.8" font-family="Times,serif" font-size="14.00">Literal 0</text>
</g>
<!-- init_0&#45;&gt;Literal0 -->
<g id="edge10" class="edge"><title>init_0&#45;&gt;Literal0</title>
<path fill="none" stroke="black" d="M200.873,-216.055C202.655,-208.261 204.812,-198.822 206.811,-190.079"/>
<polygon fill="black" stroke="black" points="210.235,-190.804 209.051,-180.275 203.411,-189.244 210.235,-190.804"/>
</g>
<!-- Identifier1 -->
<g id="node13" class="node"><title>Identifier1</title>
<ellipse fill="none" stroke="black" cx="333" cy="-306" rx="77.3284" ry="18"/>
<text text-anchor="middle" x="333" y="-301.8" font-family="Times,serif" font-size="14.00">Identifier [name=i]</text>
</g>
<!-- BinaryExpression&#45;&gt;Identifier1 -->
<g id="edge12" class="edge"><title>BinaryExpression&#45;&gt;Identifier1</title>
<path fill="none" stroke="black" d="M461.414,-361.811C436.831,-351.318 403.949,-337.283 377.613,-326.042"/>
<polygon fill="black" stroke="black" points="378.805,-322.746 368.234,-322.039 376.057,-329.184 378.805,-322.746"/>
</g>
<!-- MemberExpression0 -->
<g id="node14" class="node"><title>MemberExpression0</title>
<ellipse fill="none" stroke="black" cx="508" cy="-306" rx="79.0477" ry="18"/>
<text text-anchor="middle" x="508" y="-301.8" font-family="Times,serif" font-size="14.00">MemberExpression</text>
</g>
<!-- BinaryExpression&#45;&gt;MemberExpression0 -->
<g id="edge13" class="edge"><title>BinaryExpression&#45;&gt;MemberExpression0</title>
<path fill="none" stroke="black" d="M499.719,-359.697C500.931,-351.983 502.388,-342.712 503.739,-334.112"/>
<polygon fill="black" stroke="black" points="507.217,-334.526 505.312,-324.104 500.302,-333.44 507.217,-334.526"/>
</g>
<!-- object0 -->
<g id="node15" class="node"><title>object0</title>
<ellipse fill="none" stroke="black" cx="434" cy="-234" rx="31.5709" ry="18"/>
<text text-anchor="middle" x="434" y="-229.8" font-family="Times,serif" font-size="14.00">object</text>
</g>
<!-- MemberExpression0&#45;&gt;object0 -->
<g id="edge14" class="edge"><title>MemberExpression0&#45;&gt;object0</title>
<path fill="none" stroke="black" d="M490.463,-288.411C480.558,-279.041 468.052,-267.211 457.328,-257.067"/>
<polygon fill="black" stroke="black" points="459.567,-254.368 449.898,-250.038 454.757,-259.453 459.567,-254.368"/>
</g>
<!-- property0 -->
<g id="node17" class="node"><title>property0</title>
<ellipse fill="none" stroke="black" cx="550" cy="-234" rx="40.0987" ry="18"/>
<text text-anchor="middle" x="550" y="-229.8" font-family="Times,serif" font-size="14.00">property</text>
</g>
<!-- MemberExpression0&#45;&gt;property0 -->
<g id="edge16" class="edge"><title>MemberExpression0&#45;&gt;property0</title>
<path fill="none" stroke="black" d="M518.167,-288.055C523.12,-279.801 529.179,-269.701 534.677,-260.538"/>
<polygon fill="black" stroke="black" points="537.783,-262.165 539.927,-251.789 531.78,-258.563 537.783,-262.165"/>
</g>
<!-- Identifier2 -->
<g id="node16" class="node"><title>Identifier2</title>
<ellipse fill="none" stroke="black" cx="392" cy="-162" rx="84.3649" ry="18"/>
<text text-anchor="middle" x="392" y="-157.8" font-family="Times,serif" font-size="14.00">Identifier [name=arr]</text>
</g>
<!-- object0&#45;&gt;Identifier2 -->
<g id="edge15" class="edge"><title>object0&#45;&gt;Identifier2</title>
<path fill="none" stroke="black" d="M424.259,-216.765C419.264,-208.44 413.062,-198.104 407.435,-188.725"/>
<polygon fill="black" stroke="black" points="410.421,-186.898 402.274,-180.124 404.418,-190.5 410.421,-186.898"/>
</g>
<!-- Identifier3 -->
<g id="node18" class="node"><title>Identifier3</title>
<ellipse fill="none" stroke="black" cx="591" cy="-162" rx="96.2999" ry="18"/>
<text text-anchor="middle" x="591" y="-157.8" font-family="Times,serif" font-size="14.00">Identifier [name=length]</text>
</g>
<!-- property0&#45;&gt;Identifier3 -->
<g id="edge17" class="edge"><title>property0&#45;&gt;Identifier3</title>
<path fill="none" stroke="black" d="M559.716,-216.411C564.547,-208.163 570.495,-198.009 575.902,-188.777"/>
<polygon fill="black" stroke="black" points="579.035,-190.354 581.069,-179.956 572.994,-186.816 579.035,-190.354"/>
</g>
<!-- Identifier4 -->
<g id="node20" class="node"><title>Identifier4</title>
<ellipse fill="none" stroke="black" cx="683" cy="-306" rx="77.3284" ry="18"/>
<text text-anchor="middle" x="683" y="-301.8" font-family="Times,serif" font-size="14.00">Identifier [name=i]</text>
</g>
<!-- UpdateExpression&#45;&gt;Identifier4 -->
<g id="edge19" class="edge"><title>UpdateExpression&#45;&gt;Identifier4</title>
<path fill="none" stroke="black" d="M683,-359.697C683,-351.983 683,-342.712 683,-334.112"/>
<polygon fill="black" stroke="black" points="686.5,-334.104 683,-324.104 679.5,-334.104 686.5,-334.104"/>
</g>
<!-- AssignmentExpression -->
<g id="node22" class="node"><title>AssignmentExpression</title>
<ellipse fill="none" stroke="black" cx="882" cy="-306" rx="103.267" ry="18"/>
<text text-anchor="middle" x="882" y="-301.8" font-family="Times,serif" font-size="14.00">AssignmentExpression +=</text>
</g>
<!-- ExpressionStatement&#45;&gt;AssignmentExpression -->
<g id="edge21" class="edge"><title>ExpressionStatement&#45;&gt;AssignmentExpression</title>
<path fill="none" stroke="black" d="M878.236,-359.697C878.787,-351.983 879.449,-342.712 880.063,-334.112"/>
<polygon fill="black" stroke="black" points="883.557,-334.328 880.778,-324.104 876.575,-333.83 883.557,-334.328"/>
</g>
<!-- left -->
<g id="node23" class="node"><title>left</title>
<ellipse fill="none" stroke="black" cx="812" cy="-234" rx="27" ry="18"/>
<text text-anchor="middle" x="812" y="-229.8" font-family="Times,serif" font-size="14.00">left</text>
</g>
<!-- AssignmentExpression&#45;&gt;left -->
<g id="edge22" class="edge"><title>AssignmentExpression&#45;&gt;left</title>
<path fill="none" stroke="black" d="M865.055,-288.055C855.64,-278.64 843.824,-266.824 833.735,-256.735"/>
<polygon fill="black" stroke="black" points="835.97,-254.021 826.424,-249.424 831.021,-258.97 835.97,-254.021"/>
</g>
<!-- right -->
<g id="node29" class="node"><title>right</title>
<ellipse fill="none" stroke="black" cx="908" cy="-234" rx="27" ry="18"/>
<text text-anchor="middle" x="908" y="-229.8" font-family="Times,serif" font-size="14.00">right</text>
</g>
<!-- AssignmentExpression&#45;&gt;right -->
<g id="edge28" class="edge"><title>AssignmentExpression&#45;&gt;right</title>
<path fill="none" stroke="black" d="M888.427,-287.697C891.399,-279.696 894.993,-270.02 898.285,-261.155"/>
<polygon fill="black" stroke="black" points="901.625,-262.215 901.826,-251.622 895.063,-259.778 901.625,-262.215"/>
</g>
<!-- MemberExpression1 -->
<g id="node24" class="node"><title>MemberExpression1</title>
<ellipse fill="none" stroke="black" cx="803" cy="-162" rx="79.0477" ry="18"/>
<text text-anchor="middle" x="803" y="-157.8" font-family="Times,serif" font-size="14.00">MemberExpression</text>
</g>
<!-- left&#45;&gt;MemberExpression1 -->
<g id="edge23" class="edge"><title>left&#45;&gt;MemberExpression1</title>
<path fill="none" stroke="black" d="M809.821,-216.055C808.83,-208.346 807.632,-199.027 806.518,-190.364"/>
<polygon fill="black" stroke="black" points="809.968,-189.747 805.221,-180.275 803.025,-190.64 809.968,-189.747"/>
</g>
<!-- object1 -->
<g id="node25" class="node"><title>object1</title>
<ellipse fill="none" stroke="black" cx="713" cy="-90" rx="31.5709" ry="18"/>
<text text-anchor="middle" x="713" y="-85.8" font-family="Times,serif" font-size="14.00">object</text>
</g>
<!-- MemberExpression1&#45;&gt;object1 -->
<g id="edge24" class="edge"><title>MemberExpression1&#45;&gt;object1</title>
<path fill="none" stroke="black" d="M781.671,-144.411C768.843,-134.434 752.428,-121.666 738.863,-111.116"/>
<polygon fill="black" stroke="black" points="740.886,-108.255 730.843,-104.878 736.588,-113.78 740.886,-108.255"/>
</g>
<!-- property1 -->
<g id="node26" class="node"><title>property1</title>
<ellipse fill="none" stroke="black" cx="848" cy="-90" rx="40.0987" ry="18"/>
<text text-anchor="middle" x="848" y="-85.8" font-family="Times,serif" font-size="14.00">property</text>
</g>
<!-- MemberExpression1&#45;&gt;property1 -->
<g id="edge25" class="edge"><title>MemberExpression1&#45;&gt;property1</title>
<path fill="none" stroke="black" d="M813.893,-144.055C819.255,-135.715 825.827,-125.491 831.767,-116.252"/>
<polygon fill="black" stroke="black" points="834.744,-118.093 837.207,-107.789 828.855,-114.308 834.744,-118.093"/>
</g>
<!-- Identifier5 -->
<g id="node27" class="node"><title>Identifier5</title>
<ellipse fill="none" stroke="black" cx="691" cy="-18" rx="84.3649" ry="18"/>
<text text-anchor="middle" x="691" y="-13.8" font-family="Times,serif" font-size="14.00">Identifier [name=arr]</text>
</g>
<!-- object1&#45;&gt;Identifier5 -->
<g id="edge26" class="edge"><title>object1&#45;&gt;Identifier5</title>
<path fill="none" stroke="black" d="M707.674,-72.055C705.225,-64.2609 702.258,-54.8219 699.511,-46.0789"/>
<polygon fill="black" stroke="black" points="702.767,-44.7658 696.429,-36.2753 696.089,-46.8647 702.767,-44.7658"/>
</g>
<!-- Identifier6 -->
<g id="node28" class="node"><title>Identifier6</title>
<ellipse fill="none" stroke="black" cx="871" cy="-18" rx="77.3284" ry="18"/>
<text text-anchor="middle" x="871" y="-13.8" font-family="Times,serif" font-size="14.00">Identifier [name=i]</text>
</g>
<!-- property1&#45;&gt;Identifier6 -->
<g id="edge27" class="edge"><title>property1&#45;&gt;Identifier6</title>
<path fill="none" stroke="black" d="M853.568,-72.055C856.156,-64.1762 859.297,-54.6165 862.196,-45.794"/>
<polygon fill="black" stroke="black" points="865.527,-46.8682 865.324,-36.2753 858.877,-44.6831 865.527,-46.8682"/>
</g>
<!-- Literal1 -->
<g id="node30" class="node"><title>Literal1</title>
<ellipse fill="none" stroke="black" cx="941" cy="-162" rx="39.963" ry="18"/>
<text text-anchor="middle" x="941" y="-157.8" font-family="Times,serif" font-size="14.00">Literal 1</text>
</g>
<!-- right&#45;&gt;Literal1 -->
<g id="edge29" class="edge"><title>right&#45;&gt;Literal1</title>
<path fill="none" stroke="black" d="M915.821,-216.411C919.668,-208.249 924.396,-198.22 928.712,-189.065"/>
<polygon fill="black" stroke="black" points="931.908,-190.494 933.006,-179.956 925.576,-187.509 931.908,-190.494"/>
</g>
</g>
</svg>
