<?xml version="1.0" encoding="UTF-8" standalone="no"?>
<!DOCTYPE svg PUBLIC "-//W3C//DTD SVG 1.1//EN"
 "http://www.w3.org/Graphics/SVG/1.1/DTD/svg11.dtd">
<!-- Generated by graphviz version 2.38.0 (20140413.2041)
 -->
<!-- Title: %3 Pages: 1 -->
<svg width="465pt" height="1026pt"
 viewBox="0.00 0.00 464.68 1026.00" xmlns="http://www.w3.org/2000/svg" xmlns:xlink="http://www.w3.org/1999/xlink">
<g id="graph0" class="graph" transform="scale(1 1) rotate(0) translate(4 1022)">
<title>%3</title>
<polygon fill="white" stroke="none" points="-4,4 -4,-1022 460.675,-1022 460.675,4 -4,4"/>
<g id="clust1" class="cluster"><title>cluster0</title>
<polygon fill="none" stroke="red" points="8,-323 8,-485 116,-485 116,-323 8,-323"/>
<text text-anchor="middle" x="62" y="-469.8" font-family="Times,serif" font-size="14.00">b0</text>
</g>
<g id="clust2" class="cluster"><title>cluster1</title>
<polygon fill="none" stroke="black" points="64,-8 64,-275 226,-275 226,-8 64,-8"/>
<text text-anchor="middle" x="145" y="-259.8" font-family="Times,serif" font-size="14.00">b1</text>
</g>
<g id="clust3" class="cluster"><title>cluster2</title>
<polygon fill="none" stroke="black" points="314,-848 314,-1010 436,-1010 436,-848 314,-848"/>
<text text-anchor="middle" x="375" y="-994.8" font-family="Times,serif" font-size="14.00">b2</text>
</g>
<g id="clust4" class="cluster"><title>cluster3</title>
<polygon fill="none" stroke="black" points="124,-323 124,-800 308,-800 308,-323 124,-323"/>
<text text-anchor="middle" x="216" y="-784.8" font-family="Times,serif" font-size="14.00">b3</text>
</g>
<g id="clust5" class="cluster"><title>cluster4</title>
<polygon fill="none" stroke="blue" points="316,-638 316,-800 436,-800 436,-638 316,-638"/>
<text text-anchor="middle" x="376" y="-784.8" font-family="Times,serif" font-size="14.00">b4</text>
</g>
<!-- N0 -->
<g id="node1" class="node"><title>N0</title>
<polygon fill="none" stroke="black" points="37.7461,-436.5 37.7461,-454.5 100.254,-454.5 100.254,-436.5 37.7461,-436.5"/>
<text text-anchor="middle" x="46.7461" y="-443.1" font-family="Times,serif" font-size="8.00"> </text>
<polyline fill="none" stroke="black" points="55.7461,-436.5 55.7461,-454.5 "/>
<text text-anchor="middle" x="78" y="-443.1" font-family="Times,serif" font-size="8.00">i0 = start</text>
</g>
<!-- N3 -->
<g id="node2" class="node"><title>N3</title>
<polygon fill="none" stroke="black" points="16.4219,-331.5 16.4219,-349.5 107.578,-349.5 107.578,-331.5 16.4219,-331.5"/>
<text text-anchor="middle" x="25.4219" y="-338.1" font-family="Times,serif" font-size="8.00"> </text>
<polyline fill="none" stroke="black" points="34.4219,-331.5 34.4219,-349.5 "/>
<text text-anchor="middle" x="47.4102" y="-338.1" font-family="Times,serif" font-size="8.00">^i0</text>
<polyline fill="none" stroke="black" points="60.3984,-331.5 60.3984,-349.5 "/>
<text text-anchor="middle" x="83.9883" y="-338.1" font-family="Times,serif" font-size="8.00">i3 = jump</text>
</g>
<!-- N0&#45;&gt;N3 -->
<g id="edge1" class="edge"><title>N0:CS&#45;&gt;N3:C0</title>
<path fill="none" stroke="black" stroke-dasharray="5,2" d="M47,-425.959C47,-395.734 47,-384.639 47,-350"/>
<polygon fill="black" stroke="black" points="43.5001,-426 47,-436 50.5001,-426 43.5001,-426"/>
</g>
<!-- N4 -->
<g id="node3" class="node"><title>N4</title>
<polygon fill="none" stroke="black" points="82.4375,-226.5 82.4375,-244.5 207.562,-244.5 207.562,-226.5 82.4375,-226.5"/>
<text text-anchor="middle" x="91.4375" y="-233.1" font-family="Times,serif" font-size="8.00"> </text>
<polyline fill="none" stroke="black" points="100.438,-226.5 100.438,-244.5 "/>
<text text-anchor="middle" x="113.426" y="-233.1" font-family="Times,serif" font-size="8.00">^i3</text>
<polyline fill="none" stroke="black" points="126.414,-226.5 126.414,-244.5 "/>
<text text-anchor="middle" x="141.402" y="-233.1" font-family="Times,serif" font-size="8.00">^i19</text>
<polyline fill="none" stroke="black" points="156.391,-226.5 156.391,-244.5 "/>
<text text-anchor="middle" x="181.977" y="-233.1" font-family="Times,serif" font-size="8.00">i4 = region</text>
</g>
<!-- N3&#45;&gt;N4 -->
<g id="edge2" class="edge"><title>N3:CS&#45;&gt;N4:C0</title>
<path fill="none" stroke="black" stroke-dasharray="5,2" d="M26.1775,-320.394C36.62,-279.006 113,-296.16 113,-245.5"/>
<polygon fill="black" stroke="black" points="22.6809,-320.162 25,-330.5 29.6338,-320.972 22.6809,-320.162"/>
</g>
<!-- N5 -->
<g id="node4" class="node"><title>N5</title>
<polygon fill="none" stroke="black" points="72.3105,-121.5 72.3105,-139.5 217.689,-139.5 217.689,-121.5 72.3105,-121.5"/>
<text text-anchor="middle" x="81.3105" y="-128.1" font-family="Times,serif" font-size="8.00"> </text>
<polyline fill="none" stroke="black" points="90.3105,-121.5 90.3105,-139.5 "/>
<text text-anchor="middle" x="103.299" y="-128.1" font-family="Times,serif" font-size="8.00">^i4</text>
<polyline fill="none" stroke="black" points="116.287,-121.5 116.287,-139.5 "/>
<text text-anchor="middle" x="142.766" y="-128.1" font-family="Times,serif" font-size="8.00">i5 = ssa:phi</text>
<polyline fill="none" stroke="black" points="169.244,-121.5 169.244,-139.5 "/>
<text text-anchor="middle" x="180.355" y="-128.1" font-family="Times,serif" font-size="8.00">i1</text>
<polyline fill="none" stroke="black" points="191.467,-121.5 191.467,-139.5 "/>
<text text-anchor="middle" x="204.578" y="-128.1" font-family="Times,serif" font-size="8.00">i18</text>
</g>
<!-- N4&#45;&gt;N5 -->
<g id="edge4" class="edge"><title>N4:CS&#45;&gt;N5:C0</title>
<path fill="none" stroke="black" stroke-dasharray="5,2" d="M91.2966,-215.882C93.1445,-185.493 103,-174.974 103,-140"/>
<polygon fill="black" stroke="black" points="87.7946,-215.902 91,-226 94.7916,-216.107 87.7946,-215.902"/>
</g>
<!-- N7 -->
<g id="node5" class="node"><title>N7</title>
<polygon fill="none" stroke="black" points="99.4219,-16.5 99.4219,-34.5 190.578,-34.5 190.578,-16.5 99.4219,-16.5"/>
<text text-anchor="middle" x="108.422" y="-23.1" font-family="Times,serif" font-size="8.00"> </text>
<polyline fill="none" stroke="black" points="117.422,-16.5 117.422,-34.5 "/>
<text text-anchor="middle" x="130.41" y="-23.1" font-family="Times,serif" font-size="8.00">^i5</text>
<polyline fill="none" stroke="black" points="143.398,-16.5 143.398,-34.5 "/>
<text text-anchor="middle" x="166.988" y="-23.1" font-family="Times,serif" font-size="8.00">i7 = jump</text>
</g>
<!-- N5&#45;&gt;N7 -->
<g id="edge5" class="edge"><title>N5:CS&#45;&gt;N7:C0</title>
<path fill="none" stroke="black" stroke-dasharray="5,2" d="M82.0234,-110.619C89.06,-77.0101 130,-75.2105 130,-35"/>
<polygon fill="black" stroke="black" points="78.4981,-110.705 81,-121 85.4643,-111.392 78.4981,-110.705"/>
</g>
<!-- N8 -->
<g id="node6" class="node"><title>N8</title>
<polygon fill="none" stroke="black" points="332.426,-961.5 332.426,-979.5 427.574,-979.5 427.574,-961.5 332.426,-961.5"/>
<text text-anchor="middle" x="341.426" y="-968.1" font-family="Times,serif" font-size="8.00"> </text>
<polyline fill="none" stroke="black" points="350.426,-961.5 350.426,-979.5 "/>
<text text-anchor="middle" x="363.414" y="-968.1" font-family="Times,serif" font-size="8.00">^i7</text>
<polyline fill="none" stroke="black" points="376.402,-961.5 376.402,-979.5 "/>
<text text-anchor="middle" x="401.988" y="-968.1" font-family="Times,serif" font-size="8.00">i8 = region</text>
</g>
<!-- N7&#45;&gt;N8 -->
<g id="edge6" class="edge"><title>N7:CS&#45;&gt;N8:C0</title>
<path fill="none" stroke="black" stroke-dasharray="5,2" d="M109.552,-45.1432C134.656,-125.901 456,-148.842 456,-234.5 456,-761.5 456,-761.5 456,-761.5 456,-812.646 458.702,-828.686 437,-875 415.604,-920.66 363,-910.576 363,-961"/>
<polygon fill="black" stroke="black" points="112.972,-44.3558 108,-35 106.052,-45.4143 112.972,-44.3558"/>
</g>
<!-- N10 -->
<g id="node7" class="node"><title>N10</title>
<polygon fill="none" stroke="black" points="322.09,-856.5 322.09,-874.5 427.91,-874.5 427.91,-856.5 322.09,-856.5"/>
<text text-anchor="middle" x="331.09" y="-863.1" font-family="Times,serif" font-size="8.00"> </text>
<polyline fill="none" stroke="black" points="340.09,-856.5 340.09,-874.5 "/>
<text text-anchor="middle" x="353.078" y="-863.1" font-family="Times,serif" font-size="8.00">^i8</text>
<polyline fill="none" stroke="black" points="366.066,-856.5 366.066,-874.5 "/>
<text text-anchor="middle" x="385.877" y="-863.1" font-family="Times,serif" font-size="8.00">i10 = if</text>
<polyline fill="none" stroke="black" points="405.688,-856.5 405.688,-874.5 "/>
<text text-anchor="middle" x="416.799" y="-863.1" font-family="Times,serif" font-size="8.00">i9</text>
</g>
<!-- N8&#45;&gt;N10 -->
<g id="edge7" class="edge"><title>N8:CS&#45;&gt;N10:C0</title>
<path fill="none" stroke="black" stroke-dasharray="5,2" d="M341.297,-950.882C343.145,-920.493 353,-909.974 353,-875"/>
<polygon fill="black" stroke="black" points="337.795,-950.902 341,-961 344.792,-951.107 337.795,-950.902"/>
</g>
<!-- N11 -->
<g id="node8" class="node"><title>N11</title>
<polygon fill="none" stroke="black" points="177.572,-751.5 177.572,-769.5 280.428,-769.5 280.428,-751.5 177.572,-751.5"/>
<text text-anchor="middle" x="186.572" y="-758.1" font-family="Times,serif" font-size="8.00"> </text>
<polyline fill="none" stroke="black" points="195.572,-751.5 195.572,-769.5 "/>
<text text-anchor="middle" x="210.561" y="-758.1" font-family="Times,serif" font-size="8.00">^i10</text>
<polyline fill="none" stroke="black" points="225.549,-751.5 225.549,-769.5 "/>
<text text-anchor="middle" x="252.988" y="-758.1" font-family="Times,serif" font-size="8.00">i11 = region</text>
</g>
<!-- N10&#45;&gt;N11 -->
<g id="edge8" class="edge"><title>N10:CS&#45;&gt;N11:C0</title>
<path fill="none" stroke="black" stroke-dasharray="5,2" d="M329.889,-845.423C317.791,-794.965 211,-832.156 211,-770.5"/>
<polygon fill="black" stroke="black" points="326.425,-845.944 331,-855.5 333.383,-845.177 326.425,-845.944"/>
</g>
<!-- N20 -->
<g id="node13" class="node"><title>N20</title>
<polygon fill="none" stroke="black" points="324.426,-751.5 324.426,-769.5 427.574,-769.5 427.574,-751.5 324.426,-751.5"/>
<text text-anchor="middle" x="333.426" y="-758.1" font-family="Times,serif" font-size="8.00"> </text>
<polyline fill="none" stroke="black" points="342.426,-751.5 342.426,-769.5 "/>
<text text-anchor="middle" x="357.414" y="-758.1" font-family="Times,serif" font-size="8.00">^i10</text>
<polyline fill="none" stroke="black" points="372.402,-751.5 372.402,-769.5 "/>
<text text-anchor="middle" x="399.988" y="-758.1" font-family="Times,serif" font-size="8.00">i20 = region</text>
</g>
<!-- N10&#45;&gt;N20 -->
<g id="edge13" class="edge"><title>N10:CS&#45;&gt;N20:C0</title>
<path fill="none" stroke="black" stroke-dasharray="5,2" d="M331.643,-845.218C335.646,-814.577 357,-806.302 357,-770.5"/>
<polygon fill="black" stroke="black" points="328.131,-845.301 331,-855.5 335.117,-845.738 328.131,-845.301"/>
</g>
<!-- N12 -->
<g id="node9" class="node"><title>N12</title>
<polygon fill="none" stroke="black" points="134.023,-646.5 134.023,-664.5 299.977,-664.5 299.977,-646.5 134.023,-646.5"/>
<text text-anchor="middle" x="143.023" y="-653.1" font-family="Times,serif" font-size="8.00"> </text>
<polyline fill="none" stroke="black" points="152.023,-646.5 152.023,-664.5 "/>
<text text-anchor="middle" x="166.865" y="-653.1" font-family="Times,serif" font-size="8.00">^i11</text>
<polyline fill="none" stroke="black" points="181.707,-646.5 181.707,-664.5 "/>
<text text-anchor="middle" x="218.619" y="-653.1" font-family="Times,serif" font-size="8.00">i12 = checkRange</text>
<polyline fill="none" stroke="black" points="255.531,-646.5 255.531,-664.5 "/>
<text text-anchor="middle" x="266.643" y="-653.1" font-family="Times,serif" font-size="8.00">i2</text>
<polyline fill="none" stroke="black" points="277.754,-646.5 277.754,-664.5 "/>
<text text-anchor="middle" x="288.865" y="-653.1" font-family="Times,serif" font-size="8.00">i5</text>
</g>
<!-- N11&#45;&gt;N12 -->
<g id="edge9" class="edge"><title>N11:CS&#45;&gt;N12:C0</title>
<path fill="none" stroke="black" stroke-dasharray="5,2" d="M186.506,-740.747C183.426,-710.07 167,-700.563 167,-665"/>
<polygon fill="black" stroke="black" points="183.022,-741.18 187,-751 190.014,-740.843 183.022,-741.18"/>
</g>
<!-- N13 -->
<g id="node10" class="node"><title>N13</title>
<polygon fill="none" stroke="black" points="143.535,-541.5 143.535,-559.5 284.465,-559.5 284.465,-541.5 143.535,-541.5"/>
<text text-anchor="middle" x="152.535" y="-548.1" font-family="Times,serif" font-size="8.00"> </text>
<polyline fill="none" stroke="black" points="161.535,-541.5 161.535,-559.5 "/>
<text text-anchor="middle" x="176.523" y="-548.1" font-family="Times,serif" font-size="8.00">^i12</text>
<polyline fill="none" stroke="black" points="191.512,-541.5 191.512,-559.5 "/>
<text text-anchor="middle" x="215.766" y="-548.1" font-family="Times,serif" font-size="8.00">i13 = load</text>
<polyline fill="none" stroke="black" points="240.02,-541.5 240.02,-559.5 "/>
<text text-anchor="middle" x="251.131" y="-548.1" font-family="Times,serif" font-size="8.00">i2</text>
<polyline fill="none" stroke="black" points="262.242,-541.5 262.242,-559.5 "/>
<text text-anchor="middle" x="273.354" y="-548.1" font-family="Times,serif" font-size="8.00">i5</text>
</g>
<!-- N12&#45;&gt;N13 -->
<g id="edge10" class="edge"><title>N12:CS&#45;&gt;N13:C0</title>
<path fill="none" stroke="black" stroke-dasharray="5,2" d="M143.774,-635.324C148.835,-603.639 177,-597.22 177,-560"/>
<polygon fill="black" stroke="black" points="140.269,-635.263 143,-645.5 147.248,-635.794 140.269,-635.263"/>
</g>
<!-- N16 -->
<g id="node11" class="node"><title>N16</title>
<polygon fill="none" stroke="black" points="131.535,-436.5 131.535,-454.5 300.465,-454.5 300.465,-436.5 131.535,-436.5"/>
<text text-anchor="middle" x="140.535" y="-443.1" font-family="Times,serif" font-size="8.00"> </text>
<polyline fill="none" stroke="black" points="149.535,-436.5 149.535,-454.5 "/>
<text text-anchor="middle" x="164.523" y="-443.1" font-family="Times,serif" font-size="8.00">^i13</text>
<polyline fill="none" stroke="black" points="179.512,-436.5 179.512,-454.5 "/>
<text text-anchor="middle" x="204.654" y="-443.1" font-family="Times,serif" font-size="8.00">i16 = store</text>
<polyline fill="none" stroke="black" points="229.797,-436.5 229.797,-454.5 "/>
<text text-anchor="middle" x="240.908" y="-443.1" font-family="Times,serif" font-size="8.00">i2</text>
<polyline fill="none" stroke="black" points="252.02,-436.5 252.02,-454.5 "/>
<text text-anchor="middle" x="263.131" y="-443.1" font-family="Times,serif" font-size="8.00">i5</text>
<polyline fill="none" stroke="black" points="274.242,-436.5 274.242,-454.5 "/>
<text text-anchor="middle" x="287.354" y="-443.1" font-family="Times,serif" font-size="8.00">i15</text>
</g>
<!-- N13&#45;&gt;N16 -->
<g id="edge11" class="edge"><title>N13:CS&#45;&gt;N16:C0</title>
<path fill="none" stroke="black" stroke-dasharray="5,2" d="M153.297,-530.94C155.145,-500.726 165,-490.275 165,-455.5"/>
<polygon fill="black" stroke="black" points="149.796,-530.901 153,-541 156.793,-531.108 149.796,-530.901"/>
</g>
<!-- N19 -->
<g id="node12" class="node"><title>N19</title>
<polygon fill="none" stroke="black" points="132.422,-331.5 132.422,-349.5 231.578,-349.5 231.578,-331.5 132.422,-331.5"/>
<text text-anchor="middle" x="141.422" y="-338.1" font-family="Times,serif" font-size="8.00"> </text>
<polyline fill="none" stroke="black" points="150.422,-331.5 150.422,-349.5 "/>
<text text-anchor="middle" x="165.41" y="-338.1" font-family="Times,serif" font-size="8.00">^i16</text>
<polyline fill="none" stroke="black" points="180.398,-331.5 180.398,-349.5 "/>
<text text-anchor="middle" x="205.988" y="-338.1" font-family="Times,serif" font-size="8.00">i19 = jump</text>
</g>
<!-- N16&#45;&gt;N19 -->
<g id="edge12" class="edge"><title>N16:CS&#45;&gt;N19:C0</title>
<path fill="none" stroke="black" stroke-dasharray="5,2" d="M141.593,-425.656C145.289,-394.783 165,-385.962 165,-350"/>
<polygon fill="black" stroke="black" points="138.078,-425.816 141,-436 145.067,-426.217 138.078,-425.816"/>
</g>
<!-- N19&#45;&gt;N4 -->
<g id="edge3" class="edge"><title>N19:CS&#45;&gt;N4:C1</title>
<path fill="none" stroke="black" stroke-dasharray="5,2" d="M141,-320.19C141,-290.607 141,-279.589 141,-245.5"/>
<polygon fill="black" stroke="black" points="137.5,-320.5 141,-330.5 144.5,-320.5 137.5,-320.5"/>
</g>
<!-- N21 -->
<g id="node14" class="node"><title>N21</title>
<polygon fill="none" stroke="black" points="324.094,-646.5 324.094,-664.5 425.906,-664.5 425.906,-646.5 324.094,-646.5"/>
<text text-anchor="middle" x="333.094" y="-653.1" font-family="Times,serif" font-size="8.00"> </text>
<polyline fill="none" stroke="black" points="342.094,-646.5 342.094,-664.5 "/>
<text text-anchor="middle" x="357.082" y="-653.1" font-family="Times,serif" font-size="8.00">^i20</text>
<polyline fill="none" stroke="black" points="372.07,-646.5 372.07,-664.5 "/>
<text text-anchor="middle" x="398.988" y="-653.1" font-family="Times,serif" font-size="8.00">i21 = return</text>
</g>
<!-- N20&#45;&gt;N21 -->
<g id="edge14" class="edge"><title>N20:CS&#45;&gt;N21:C0</title>
<path fill="none" stroke="black" stroke-dasharray="5,2" d="M333.593,-740.656C337.289,-709.783 357,-700.962 357,-665"/>
<polygon fill="black" stroke="black" points="330.078,-740.816 333,-751 337.067,-741.217 330.078,-740.816"/>
</g>
</g>
</svg>
