<?xml version="1.0" encoding="UTF-8" standalone="no"?>
<!DOCTYPE svg PUBLIC "-//W3C//DTD SVG 1.1//EN"
 "http://www.w3.org/Graphics/SVG/1.1/DTD/svg11.dtd">
<!-- Generated by graphviz version 2.38.0 (20140413.2041)
 -->
<!-- Title: %3 Pages: 1 -->
<svg width="684pt" height="1287pt"
 viewBox="0.00 0.00 683.94 1287.00" xmlns="http://www.w3.org/2000/svg" xmlns:xlink="http://www.w3.org/1999/xlink">
<g id="graph0" class="graph" transform="scale(1 1) rotate(0) translate(4 1283)">
<title>%3</title>
<polygon fill="white" stroke="none" points="-4,4 -4,-1283 679.938,-1283 679.938,4 -4,4"/>
<!-- N0 -->
<g id="node1" class="node"><title>N0</title>
<polygon fill="none" stroke="black" points="176.324,-1260.5 176.324,-1278.5 238.832,-1278.5 238.832,-1260.5 176.324,-1260.5"/>
<text text-anchor="middle" x="185.324" y="-1267.1" font-family="Times,serif" font-size="8.00"> </text>
<polyline fill="none" stroke="black" points="194.324,-1260.5 194.324,-1278.5 "/>
<text text-anchor="middle" x="216.578" y="-1267.1" font-family="Times,serif" font-size="8.00">i0 = start</text>
</g>
<!-- N3 -->
<g id="node4" class="node"><title>N3</title>
<polygon fill="none" stroke="black" points="155,-1155.5 155,-1173.5 246.156,-1173.5 246.156,-1155.5 155,-1155.5"/>
<text text-anchor="middle" x="164" y="-1162.1" font-family="Times,serif" font-size="8.00"> </text>
<polyline fill="none" stroke="black" points="173,-1155.5 173,-1173.5 "/>
<text text-anchor="middle" x="185.988" y="-1162.1" font-family="Times,serif" font-size="8.00">^i0</text>
<polyline fill="none" stroke="black" points="198.977,-1155.5 198.977,-1173.5 "/>
<text text-anchor="middle" x="222.566" y="-1162.1" font-family="Times,serif" font-size="8.00">i3 = jump</text>
</g>
<!-- N0&#45;&gt;N3 -->
<g id="edge1" class="edge"><title>N0:CS&#45;&gt;N3:C0</title>
<path fill="none" stroke="black" stroke-dasharray="5,2" d="M185.578,-1249.96C185.578,-1219.73 185.578,-1208.64 185.578,-1174"/>
<polygon fill="black" stroke="black" points="182.078,-1250 185.578,-1260 189.078,-1250 182.078,-1250"/>
</g>
<!-- N1 -->
<g id="node2" class="node"><title>N1</title>
<polygon fill="none" stroke="black" points="492.219,-1050.5 492.219,-1068.5 568.938,-1068.5 568.938,-1050.5 492.219,-1050.5"/>
<text text-anchor="middle" x="501.219" y="-1057.1" font-family="Times,serif" font-size="8.00"> </text>
<polyline fill="none" stroke="black" points="510.219,-1050.5 510.219,-1068.5 "/>
<text text-anchor="middle" x="539.578" y="-1057.1" font-family="Times,serif" font-size="8.00">i1 = literal(0)</text>
</g>
<!-- N5 -->
<g id="node6" class="node"><title>N5</title>
<polygon fill="none" stroke="black" points="431.889,-945.5 431.889,-963.5 577.268,-963.5 577.268,-945.5 431.889,-945.5"/>
<text text-anchor="middle" x="440.889" y="-952.1" font-family="Times,serif" font-size="8.00"> </text>
<polyline fill="none" stroke="black" points="449.889,-945.5 449.889,-963.5 "/>
<text text-anchor="middle" x="462.877" y="-952.1" font-family="Times,serif" font-size="8.00">^i4</text>
<polyline fill="none" stroke="black" points="475.865,-945.5 475.865,-963.5 "/>
<text text-anchor="middle" x="502.344" y="-952.1" font-family="Times,serif" font-size="8.00">i5 = ssa:phi</text>
<polyline fill="none" stroke="black" points="528.822,-945.5 528.822,-963.5 "/>
<text text-anchor="middle" x="539.934" y="-952.1" font-family="Times,serif" font-size="8.00">i1</text>
<polyline fill="none" stroke="black" points="551.045,-945.5 551.045,-963.5 "/>
<text text-anchor="middle" x="564.156" y="-952.1" font-family="Times,serif" font-size="8.00">i18</text>
</g>
<!-- N1&#45;&gt;N5 -->
<g id="edge5" class="edge"><title>N1:S&#45;&gt;N5:I0</title>
<path fill="none" stroke="black" d="M539.578,-1050C539.578,-1015.36 539.578,-1004.27 539.578,-974.041"/>
<polygon fill="black" stroke="black" points="543.078,-974 539.578,-964 536.078,-974 543.078,-974"/>
</g>
<!-- N2 -->
<g id="node3" class="node"><title>N2</title>
<polygon fill="none" stroke="red" points="281.996,-945.5 281.996,-963.5 347.16,-963.5 347.16,-945.5 281.996,-945.5"/>
<text text-anchor="middle" x="290.996" y="-952.1" font-family="Times,serif" font-size="8.00"> </text>
<polyline fill="none" stroke="red" points="299.996,-945.5 299.996,-963.5 "/>
<text text-anchor="middle" x="323.578" y="-952.1" font-family="Times,serif" font-size="8.00">i2 = array</text>
</g>
<!-- N6 -->
<g id="node7" class="node"><title>N6</title>
<polygon fill="none" stroke="black" points="208.555,-840.5 208.555,-858.5 334.602,-858.5 334.602,-840.5 208.555,-840.5"/>
<text text-anchor="middle" x="217.555" y="-847.1" font-family="Times,serif" font-size="8.00"> </text>
<polyline fill="none" stroke="black" points="226.555,-840.5 226.555,-858.5 "/>
<text text-anchor="middle" x="269.467" y="-847.1" font-family="Times,serif" font-size="8.00">i6 = loadArrayLength</text>
<polyline fill="none" stroke="black" points="312.379,-840.5 312.379,-858.5 "/>
<text text-anchor="middle" x="323.49" y="-847.1" font-family="Times,serif" font-size="8.00">i2</text>
</g>
<!-- N2&#45;&gt;N6 -->
<g id="edge7" class="edge"><title>N2:S&#45;&gt;N6:I0</title>
<path fill="none" stroke="black" d="M323.578,-945C323.578,-910.361 323.578,-899.266 323.578,-869.041"/>
<polygon fill="black" stroke="black" points="327.078,-869 323.578,-859 320.078,-869 327.078,-869"/>
</g>
<!-- N12 -->
<g id="node13" class="node"><title>N12</title>
<polygon fill="none" stroke="black" points="123.602,-420.5 123.602,-438.5 289.555,-438.5 289.555,-420.5 123.602,-420.5"/>
<text text-anchor="middle" x="132.602" y="-427.1" font-family="Times,serif" font-size="8.00"> </text>
<polyline fill="none" stroke="black" points="141.602,-420.5 141.602,-438.5 "/>
<text text-anchor="middle" x="156.443" y="-427.1" font-family="Times,serif" font-size="8.00">^i11</text>
<polyline fill="none" stroke="black" points="171.285,-420.5 171.285,-438.5 "/>
<text text-anchor="middle" x="208.197" y="-427.1" font-family="Times,serif" font-size="8.00">i12 = checkRange</text>
<polyline fill="none" stroke="black" points="245.109,-420.5 245.109,-438.5 "/>
<text text-anchor="middle" x="256.221" y="-427.1" font-family="Times,serif" font-size="8.00">i2</text>
<polyline fill="none" stroke="black" points="267.332,-420.5 267.332,-438.5 "/>
<text text-anchor="middle" x="278.443" y="-427.1" font-family="Times,serif" font-size="8.00">i5</text>
</g>
<!-- N2&#45;&gt;N12 -->
<g id="edge16" class="edge"><title>N2:S&#45;&gt;N12:I0</title>
<path fill="none" stroke="black" d="M247.578,-638.5C244.296,-553.357 255.61,-529.628 256.52,-449.339"/>
<polygon fill="black" stroke="black" points="260.021,-449.28 256.578,-439.26 253.021,-449.24 260.021,-449.28"/>
</g>
<!-- N13 -->
<g id="node14" class="node"><title>N13</title>
<polygon fill="none" stroke="black" points="128.113,-315.5 128.113,-333.5 269.043,-333.5 269.043,-315.5 128.113,-315.5"/>
<text text-anchor="middle" x="137.113" y="-322.1" font-family="Times,serif" font-size="8.00"> </text>
<polyline fill="none" stroke="black" points="146.113,-315.5 146.113,-333.5 "/>
<text text-anchor="middle" x="161.102" y="-322.1" font-family="Times,serif" font-size="8.00">^i12</text>
<polyline fill="none" stroke="black" points="176.09,-315.5 176.09,-333.5 "/>
<text text-anchor="middle" x="200.344" y="-322.1" font-family="Times,serif" font-size="8.00">i13 = load</text>
<polyline fill="none" stroke="black" points="224.598,-315.5 224.598,-333.5 "/>
<text text-anchor="middle" x="235.709" y="-322.1" font-family="Times,serif" font-size="8.00">i2</text>
<polyline fill="none" stroke="black" points="246.82,-315.5 246.82,-333.5 "/>
<text text-anchor="middle" x="257.932" y="-322.1" font-family="Times,serif" font-size="8.00">i5</text>
</g>
<!-- N2&#45;&gt;N13 -->
<g id="edge19" class="edge"><title>N2:S&#45;&gt;N13:I0</title>
<path fill="none" stroke="black" d="M323.578,-945C323.578,-843.791 407.215,-846.813 447.578,-754 467.976,-707.097 466.578,-691.646 466.578,-640.5 466.578,-640.5 466.578,-640.5 466.578,-533.5 466.578,-479.235 458.867,-459.423 421.578,-420 361.561,-356.548 245.6,-419.462 236.188,-344.408"/>
<polygon fill="black" stroke="black" points="239.657,-343.778 235.578,-334 232.669,-344.188 239.657,-343.778"/>
</g>
<!-- N16 -->
<g id="node17" class="node"><title>N16</title>
<polygon fill="none" stroke="black" points="30.1133,-105.5 30.1133,-123.5 199.043,-123.5 199.043,-105.5 30.1133,-105.5"/>
<text text-anchor="middle" x="39.1133" y="-112.1" font-family="Times,serif" font-size="8.00"> </text>
<polyline fill="none" stroke="black" points="48.1133,-105.5 48.1133,-123.5 "/>
<text text-anchor="middle" x="63.1016" y="-112.1" font-family="Times,serif" font-size="8.00">^i13</text>
<polyline fill="none" stroke="black" points="78.0898,-105.5 78.0898,-123.5 "/>
<text text-anchor="middle" x="103.232" y="-112.1" font-family="Times,serif" font-size="8.00">i16 = store</text>
<polyline fill="none" stroke="black" points="128.375,-105.5 128.375,-123.5 "/>
<text text-anchor="middle" x="139.486" y="-112.1" font-family="Times,serif" font-size="8.00">i2</text>
<polyline fill="none" stroke="black" points="150.598,-105.5 150.598,-123.5 "/>
<text text-anchor="middle" x="161.709" y="-112.1" font-family="Times,serif" font-size="8.00">i5</text>
<polyline fill="none" stroke="black" points="172.82,-105.5 172.82,-123.5 "/>
<text text-anchor="middle" x="185.932" y="-112.1" font-family="Times,serif" font-size="8.00">i15</text>
</g>
<!-- N2&#45;&gt;N16 -->
<g id="edge24" class="edge"><title>N2:S&#45;&gt;N16:I0</title>
<path fill="none" stroke="black" d="M323.578,-945C323.578,-877.932 230.68,-918.421 199.578,-859 174.021,-810.173 186.747,-788.596 199.578,-735 210.546,-689.187 249.104,-687.583 247.578,-640.5"/>
<path fill="none" stroke="black" d="M247.578,-638.5C240.554,-564.128 148.877,-606.901 108.578,-544 80.9869,-500.934 89.5781,-481.646 89.5781,-430.5 89.5781,-430.5 89.5781,-430.5 89.5781,-323.5 89.5781,-235.572 135.842,-216.788 139.366,-134.127"/>
<polygon fill="black" stroke="black" points="142.868,-134.071 139.578,-124 135.869,-133.925 142.868,-134.071"/>
</g>
<!-- N4 -->
<g id="node5" class="node"><title>N4</title>
<polygon fill="none" stroke="black" points="133.016,-1050.5 133.016,-1068.5 258.141,-1068.5 258.141,-1050.5 133.016,-1050.5"/>
<text text-anchor="middle" x="142.016" y="-1057.1" font-family="Times,serif" font-size="8.00"> </text>
<polyline fill="none" stroke="black" points="151.016,-1050.5 151.016,-1068.5 "/>
<text text-anchor="middle" x="164.004" y="-1057.1" font-family="Times,serif" font-size="8.00">^i3</text>
<polyline fill="none" stroke="black" points="176.992,-1050.5 176.992,-1068.5 "/>
<text text-anchor="middle" x="191.98" y="-1057.1" font-family="Times,serif" font-size="8.00">^i19</text>
<polyline fill="none" stroke="black" points="206.969,-1050.5 206.969,-1068.5 "/>
<text text-anchor="middle" x="232.555" y="-1057.1" font-family="Times,serif" font-size="8.00">i4 = region</text>
</g>
<!-- N3&#45;&gt;N4 -->
<g id="edge2" class="edge"><title>N3:CS&#45;&gt;N4:C0</title>
<path fill="none" stroke="black" stroke-dasharray="5,2" d="M163.578,-1144.96C163.578,-1114.73 163.578,-1103.64 163.578,-1069"/>
<polygon fill="black" stroke="black" points="160.078,-1145 163.578,-1155 167.078,-1145 160.078,-1145"/>
</g>
<!-- N4&#45;&gt;N5 -->
<g id="edge4" class="edge"><title>N4:CS&#45;&gt;N5:C0</title>
<path fill="none" stroke="black" stroke-dasharray="5,2" d="M142.143,-1039.81C157.061,-912.314 462.578,-1108.09 462.578,-964"/>
<polygon fill="black" stroke="black" points="138.637,-1039.82 141.578,-1050 145.626,-1040.21 138.637,-1039.82"/>
</g>
<!-- N7 -->
<g id="node8" class="node"><title>N7</title>
<polygon fill="none" stroke="black" points="391,-840.5 391,-858.5 482.156,-858.5 482.156,-840.5 391,-840.5"/>
<text text-anchor="middle" x="400" y="-847.1" font-family="Times,serif" font-size="8.00"> </text>
<polyline fill="none" stroke="black" points="409,-840.5 409,-858.5 "/>
<text text-anchor="middle" x="421.988" y="-847.1" font-family="Times,serif" font-size="8.00">^i5</text>
<polyline fill="none" stroke="black" points="434.977,-840.5 434.977,-858.5 "/>
<text text-anchor="middle" x="458.566" y="-847.1" font-family="Times,serif" font-size="8.00">i7 = jump</text>
</g>
<!-- N5&#45;&gt;N7 -->
<g id="edge8" class="edge"><title>N5:CS&#45;&gt;N7:C0</title>
<path fill="none" stroke="black" stroke-dasharray="5,2" d="M440.108,-934.768C437.183,-904.134 421.578,-894.474 421.578,-859"/>
<polygon fill="black" stroke="black" points="436.623,-935.171 440.578,-945 443.616,-934.85 436.623,-935.171"/>
</g>
<!-- N9 -->
<g id="node10" class="node"><title>N9</title>
<polygon fill="none" stroke="black" points="322.182,-735.5 322.182,-753.5 438.975,-753.5 438.975,-735.5 322.182,-735.5"/>
<text text-anchor="middle" x="331.182" y="-742.1" font-family="Times,serif" font-size="8.00"> </text>
<polyline fill="none" stroke="black" points="340.182,-735.5 340.182,-753.5 "/>
<text text-anchor="middle" x="367.355" y="-742.1" font-family="Times,serif" font-size="8.00">i9 = cmp(&lt;)</text>
<polyline fill="none" stroke="black" points="394.529,-735.5 394.529,-753.5 "/>
<text text-anchor="middle" x="405.641" y="-742.1" font-family="Times,serif" font-size="8.00">i5</text>
<polyline fill="none" stroke="black" points="416.752,-735.5 416.752,-753.5 "/>
<text text-anchor="middle" x="427.863" y="-742.1" font-family="Times,serif" font-size="8.00">i6</text>
</g>
<!-- N5&#45;&gt;N9 -->
<g id="edge10" class="edge"><title>N5:S&#45;&gt;N9:I0</title>
<path fill="none" stroke="black" d="M510.578,-848.5C495.481,-791.475 416.061,-813.609 406.517,-764.417"/>
<polygon fill="black" stroke="black" points="409.993,-763.998 405.579,-754.367 403.023,-764.649 409.993,-763.998"/>
<path fill="none" stroke="black" d="M502.578,-945C502.578,-902.85 521.366,-891.246 510.578,-850.5"/>
</g>
<!-- N5&#45;&gt;N12 -->
<g id="edge17" class="edge"><title>N5:S&#45;&gt;N12:I1</title>
<path fill="none" stroke="black" d="M510.578,-848.5C498.842,-804.172 514.254,-790.323 504.578,-745.5"/>
<path fill="none" stroke="black" d="M504.578,-743.5C469.779,-582.295 286.682,-606.389 278.838,-449.584"/>
<polygon fill="black" stroke="black" points="282.334,-449.4 278.579,-439.493 275.337,-449.58 282.334,-449.4"/>
</g>
<!-- N5&#45;&gt;N13 -->
<g id="edge20" class="edge"><title>N5:S&#45;&gt;N13:I1</title>
<path fill="none" stroke="black" d="M504.578,-428.5C453.853,-332.167 368.173,-395.853 278.578,-334 277.854,-333.5 277.276,-332.933 276.796,-332.332"/>
<polygon fill="black" stroke="black" points="279.266,-329.836 270.102,-324.518 273.95,-334.389 279.266,-329.836"/>
<path fill="none" stroke="black" d="M504.578,-743.5C481.36,-606.34 569.392,-553.589 504.578,-430.5"/>
</g>
<!-- N5&#45;&gt;N16 -->
<g id="edge25" class="edge"><title>N5:S&#45;&gt;N16:I1</title>
<path fill="none" stroke="black" d="M504.578,-428.5C424.402,-310.555 377.662,-303.043 269.578,-210 225.977,-172.466 169.192,-183.655 162.278,-134.619"/>
<polygon fill="black" stroke="black" points="165.75,-134.098 161.579,-124.359 158.766,-134.573 165.75,-134.098"/>
</g>
<!-- N18 -->
<g id="node19" class="node"><title>N18</title>
<polygon fill="none" stroke="black" points="538.213,-840.5 538.213,-858.5 650.943,-858.5 650.943,-840.5 538.213,-840.5"/>
<text text-anchor="middle" x="547.213" y="-847.1" font-family="Times,serif" font-size="8.00"> </text>
<polyline fill="none" stroke="black" points="556.213,-840.5 556.213,-858.5 "/>
<text text-anchor="middle" x="579.355" y="-847.1" font-family="Times,serif" font-size="8.00">i18 = add</text>
<polyline fill="none" stroke="black" points="602.498,-840.5 602.498,-858.5 "/>
<text text-anchor="middle" x="613.609" y="-847.1" font-family="Times,serif" font-size="8.00">i5</text>
<polyline fill="none" stroke="black" points="624.721,-840.5 624.721,-858.5 "/>
<text text-anchor="middle" x="637.832" y="-847.1" font-family="Times,serif" font-size="8.00">i17</text>
</g>
<!-- N5&#45;&gt;N18 -->
<g id="edge27" class="edge"><title>N5:S&#45;&gt;N18:I0</title>
<path fill="none" stroke="black" d="M502.578,-945C502.578,-886.249 600.951,-917.207 612.48,-868.968"/>
<polygon fill="black" stroke="black" points="615.962,-869.323 613.578,-859 609.004,-868.556 615.962,-869.323"/>
</g>
<!-- N6&#45;&gt;N9 -->
<g id="edge11" class="edge"><title>N6:S&#45;&gt;N9:I1</title>
<path fill="none" stroke="black" d="M269.578,-840C269.578,-763.797 413.113,-827.36 426.569,-764.261"/>
<polygon fill="black" stroke="black" points="430.083,-764.295 427.578,-754 423.116,-763.609 430.083,-764.295"/>
</g>
<!-- N8 -->
<g id="node9" class="node"><title>N8</title>
<polygon fill="none" stroke="black" points="209.004,-735.5 209.004,-753.5 304.152,-753.5 304.152,-735.5 209.004,-735.5"/>
<text text-anchor="middle" x="218.004" y="-742.1" font-family="Times,serif" font-size="8.00"> </text>
<polyline fill="none" stroke="black" points="227.004,-735.5 227.004,-753.5 "/>
<text text-anchor="middle" x="239.992" y="-742.1" font-family="Times,serif" font-size="8.00">^i7</text>
<polyline fill="none" stroke="black" points="252.98,-735.5 252.98,-753.5 "/>
<text text-anchor="middle" x="278.566" y="-742.1" font-family="Times,serif" font-size="8.00">i8 = region</text>
</g>
<!-- N7&#45;&gt;N8 -->
<g id="edge9" class="edge"><title>N7:CS&#45;&gt;N8:C0</title>
<path fill="none" stroke="black" stroke-dasharray="5,2" d="M379.393,-848.558C333.872,-841.067 239.578,-790.506 239.578,-754"/>
<polygon fill="black" stroke="black" points="379.298,-852.064 389.578,-849.5 379.943,-845.093 379.298,-852.064"/>
</g>
<!-- N10 -->
<g id="node11" class="node"><title>N10</title>
<polygon fill="none" stroke="black" points="275.668,-630.5 275.668,-648.5 381.488,-648.5 381.488,-630.5 275.668,-630.5"/>
<text text-anchor="middle" x="284.668" y="-637.1" font-family="Times,serif" font-size="8.00"> </text>
<polyline fill="none" stroke="black" points="293.668,-630.5 293.668,-648.5 "/>
<text text-anchor="middle" x="306.656" y="-637.1" font-family="Times,serif" font-size="8.00">^i8</text>
<polyline fill="none" stroke="black" points="319.645,-630.5 319.645,-648.5 "/>
<text text-anchor="middle" x="339.455" y="-637.1" font-family="Times,serif" font-size="8.00">i10 = if</text>
<polyline fill="none" stroke="black" points="359.266,-630.5 359.266,-648.5 "/>
<text text-anchor="middle" x="370.377" y="-637.1" font-family="Times,serif" font-size="8.00">i9</text>
</g>
<!-- N8&#45;&gt;N10 -->
<g id="edge12" class="edge"><title>N8:CS&#45;&gt;N10:C0</title>
<path fill="none" stroke="black" stroke-dasharray="5,2" d="M218.703,-725.041C229.006,-682.835 306.578,-700.353 306.578,-649"/>
<polygon fill="black" stroke="black" points="215.223,-724.67 217.578,-735 222.179,-725.456 215.223,-724.67"/>
</g>
<!-- N9&#45;&gt;N10 -->
<g id="edge13" class="edge"><title>N9:S&#45;&gt;N10:I0</title>
<path fill="none" stroke="black" d="M367.578,-735C367.578,-700.34 370.042,-689.281 370.504,-659.046"/>
<polygon fill="black" stroke="black" points="374.004,-659.026 370.578,-649 367.004,-658.974 374.004,-659.026"/>
</g>
<!-- N11 -->
<g id="node12" class="node"><title>N11</title>
<polygon fill="none" stroke="black" points="117.15,-525.5 117.15,-543.5 220.006,-543.5 220.006,-525.5 117.15,-525.5"/>
<text text-anchor="middle" x="126.15" y="-532.1" font-family="Times,serif" font-size="8.00"> </text>
<polyline fill="none" stroke="black" points="135.15,-525.5 135.15,-543.5 "/>
<text text-anchor="middle" x="150.139" y="-532.1" font-family="Times,serif" font-size="8.00">^i10</text>
<polyline fill="none" stroke="black" points="165.127,-525.5 165.127,-543.5 "/>
<text text-anchor="middle" x="192.566" y="-532.1" font-family="Times,serif" font-size="8.00">i11 = region</text>
</g>
<!-- N10&#45;&gt;N11 -->
<g id="edge14" class="edge"><title>N10:CS&#45;&gt;N11:C0</title>
<path fill="none" stroke="black" stroke-dasharray="5,2" d="M266.464,-633.59C238.894,-612.899 150.578,-544.921 150.578,-544"/>
<polygon fill="black" stroke="black" points="264.434,-636.442 274.578,-639.5 268.556,-630.783 264.434,-636.442"/>
</g>
<!-- N20 -->
<g id="node21" class="node"><title>N20</title>
<polygon fill="none" stroke="black" points="335.004,-525.5 335.004,-543.5 438.152,-543.5 438.152,-525.5 335.004,-525.5"/>
<text text-anchor="middle" x="344.004" y="-532.1" font-family="Times,serif" font-size="8.00"> </text>
<polyline fill="none" stroke="black" points="353.004,-525.5 353.004,-543.5 "/>
<text text-anchor="middle" x="367.992" y="-532.1" font-family="Times,serif" font-size="8.00">^i10</text>
<polyline fill="none" stroke="black" points="382.98,-525.5 382.98,-543.5 "/>
<text text-anchor="middle" x="410.566" y="-532.1" font-family="Times,serif" font-size="8.00">i20 = region</text>
</g>
<!-- N10&#45;&gt;N20 -->
<g id="edge30" class="edge"><title>N10:CS&#45;&gt;N20:C0</title>
<path fill="none" stroke="black" stroke-dasharray="5,2" d="M285.751,-619.832C295.84,-579.364 367.578,-593.385 367.578,-544"/>
<polygon fill="black" stroke="black" points="282.248,-619.665 284.578,-630 289.201,-620.467 282.248,-619.665"/>
</g>
<!-- N11&#45;&gt;N12 -->
<g id="edge15" class="edge"><title>N11:CS&#45;&gt;N12:C0</title>
<path fill="none" stroke="black" stroke-dasharray="5,2" d="M127.261,-514.896C131.727,-483.328 156.578,-475.844 156.578,-439"/>
<polygon fill="black" stroke="black" points="123.761,-514.787 126.578,-525 130.745,-515.259 123.761,-514.787"/>
</g>
<!-- N12&#45;&gt;N13 -->
<g id="edge18" class="edge"><title>N12:CS&#45;&gt;N13:C0</title>
<path fill="none" stroke="black" stroke-dasharray="5,2" d="M133.238,-409.925C137.555,-378.423 161.578,-370.713 161.578,-334"/>
<polygon fill="black" stroke="black" points="129.74,-409.793 132.578,-420 136.725,-410.25 129.74,-409.793"/>
</g>
<!-- N15 -->
<g id="node16" class="node"><title>N15</title>
<polygon fill="none" stroke="black" points="144.213,-210.5 144.213,-228.5 260.943,-228.5 260.943,-210.5 144.213,-210.5"/>
<text text-anchor="middle" x="153.213" y="-217.1" font-family="Times,serif" font-size="8.00"> </text>
<polyline fill="none" stroke="black" points="162.213,-210.5 162.213,-228.5 "/>
<text text-anchor="middle" x="185.355" y="-217.1" font-family="Times,serif" font-size="8.00">i15 = add</text>
<polyline fill="none" stroke="black" points="208.498,-210.5 208.498,-228.5 "/>
<text text-anchor="middle" x="221.609" y="-217.1" font-family="Times,serif" font-size="8.00">i13</text>
<polyline fill="none" stroke="black" points="234.721,-210.5 234.721,-228.5 "/>
<text text-anchor="middle" x="247.832" y="-217.1" font-family="Times,serif" font-size="8.00">i14</text>
</g>
<!-- N13&#45;&gt;N15 -->
<g id="edge21" class="edge"><title>N13:S&#45;&gt;N15:I0</title>
<path fill="none" stroke="black" d="M200.578,-315C200.578,-279.343 217.825,-269.997 221.059,-239.274"/>
<polygon fill="black" stroke="black" points="224.569,-239.164 221.578,-229 217.578,-238.811 224.569,-239.164"/>
</g>
<!-- N13&#45;&gt;N16 -->
<g id="edge23" class="edge"><title>N13:CS&#45;&gt;N16:C0</title>
<path fill="none" stroke="black" stroke-dasharray="5,2" d="M137.248,-304.698C131.91,-223.14 63.5781,-211.481 63.5781,-124"/>
<polygon fill="black" stroke="black" points="133.76,-305.117 137.578,-315 140.756,-304.893 133.76,-305.117"/>
</g>
<!-- N14 -->
<g id="node15" class="node"><title>N14</title>
<polygon fill="none" stroke="black" points="287.219,-315.5 287.219,-333.5 367.938,-333.5 367.938,-315.5 287.219,-315.5"/>
<text text-anchor="middle" x="296.219" y="-322.1" font-family="Times,serif" font-size="8.00"> </text>
<polyline fill="none" stroke="black" points="305.219,-315.5 305.219,-333.5 "/>
<text text-anchor="middle" x="336.578" y="-322.1" font-family="Times,serif" font-size="8.00">i14 = literal(1)</text>
</g>
<!-- N14&#45;&gt;N15 -->
<g id="edge22" class="edge"><title>N14:S&#45;&gt;N15:I1</title>
<path fill="none" stroke="black" d="M336.578,-315C336.578,-264.51 318.171,-224.905 271.606,-220.01"/>
<polygon fill="black" stroke="black" points="271.743,-216.512 261.578,-219.5 271.387,-223.503 271.743,-216.512"/>
</g>
<!-- N15&#45;&gt;N16 -->
<g id="edge26" class="edge"><title>N15:S&#45;&gt;N16:I2</title>
<path fill="none" stroke="black" d="M185.578,-210C185.578,-175.361 185.578,-164.266 185.578,-134.041"/>
<polygon fill="black" stroke="black" points="189.078,-134 185.578,-124 182.078,-134 189.078,-134"/>
</g>
<!-- N19 -->
<g id="node20" class="node"><title>N19</title>
<polygon fill="none" stroke="black" points="0,-0.5 0,-18.5 99.1562,-18.5 99.1562,-0.5 0,-0.5"/>
<text text-anchor="middle" x="9" y="-7.1" font-family="Times,serif" font-size="8.00"> </text>
<polyline fill="none" stroke="black" points="18,-0.5 18,-18.5 "/>
<text text-anchor="middle" x="32.9883" y="-7.1" font-family="Times,serif" font-size="8.00">^i16</text>
<polyline fill="none" stroke="black" points="47.9766,-0.5 47.9766,-18.5 "/>
<text text-anchor="middle" x="73.5664" y="-7.1" font-family="Times,serif" font-size="8.00">i19 = jump</text>
</g>
<!-- N16&#45;&gt;N19 -->
<g id="edge29" class="edge"><title>N16:CS&#45;&gt;N19:C0</title>
<path fill="none" stroke="black" stroke-dasharray="5,2" d="M39.4051,-94.9324C38.3271,-64.6518 32.5781,-53.7534 32.5781,-19"/>
<polygon fill="black" stroke="black" points="35.9067,-95.0617 39.5781,-105 42.9057,-94.9413 35.9067,-95.0617"/>
</g>
<!-- N17 -->
<g id="node18" class="node"><title>N17</title>
<polygon fill="none" stroke="black" points="595.219,-945.5 595.219,-963.5 675.938,-963.5 675.938,-945.5 595.219,-945.5"/>
<text text-anchor="middle" x="604.219" y="-952.1" font-family="Times,serif" font-size="8.00"> </text>
<polyline fill="none" stroke="black" points="613.219,-945.5 613.219,-963.5 "/>
<text text-anchor="middle" x="644.578" y="-952.1" font-family="Times,serif" font-size="8.00">i17 = literal(1)</text>
</g>
<!-- N17&#45;&gt;N18 -->
<g id="edge28" class="edge"><title>N17:S&#45;&gt;N18:I1</title>
<path fill="none" stroke="black" d="M644.578,-945C644.578,-910.247 638.829,-899.348 637.751,-869.068"/>
<polygon fill="black" stroke="black" points="641.25,-868.938 637.578,-859 634.251,-869.059 641.25,-868.938"/>
</g>
<!-- N18&#45;&gt;N5 -->
<g id="edge6" class="edge"><title>N18:S&#45;&gt;N5:I1</title>
<path fill="none" stroke="black" d="M579.578,-859C579.578,-894.162 567.259,-904.358 564.949,-934.839"/>
<polygon fill="black" stroke="black" points="561.445,-934.879 564.578,-945 568.441,-935.134 561.445,-934.879"/>
</g>
<!-- N19&#45;&gt;N4 -->
<g id="edge3" class="edge"><title>N19:CS&#45;&gt;N4:C1</title>
<path fill="none" stroke="black" stroke-dasharray="5,2" d="M8.55137,-29.0983C8.11853,-109.534 2.57812,-133.258 2.57812,-218.5 2.57812,-850.5 2.57812,-850.5 2.57812,-850.5 2.57812,-972.638 191.578,-927.862 191.578,-1050"/>
<polygon fill="black" stroke="black" points="12.0515,-29.0093 8.57812,-19 5.05155,-28.9907 12.0515,-29.0093"/>
</g>
<!-- N21 -->
<g id="node22" class="node"><title>N21</title>
<polygon fill="none" stroke="black" points="310.672,-420.5 310.672,-438.5 412.484,-438.5 412.484,-420.5 310.672,-420.5"/>
<text text-anchor="middle" x="319.672" y="-427.1" font-family="Times,serif" font-size="8.00"> </text>
<polyline fill="none" stroke="black" points="328.672,-420.5 328.672,-438.5 "/>
<text text-anchor="middle" x="343.66" y="-427.1" font-family="Times,serif" font-size="8.00">^i20</text>
<polyline fill="none" stroke="black" points="358.648,-420.5 358.648,-438.5 "/>
<text text-anchor="middle" x="385.566" y="-427.1" font-family="Times,serif" font-size="8.00">i21 = return</text>
</g>
<!-- N20&#45;&gt;N21 -->
<g id="edge31" class="edge"><title>N20:CS&#45;&gt;N21:C0</title>
<path fill="none" stroke="black" stroke-dasharray="5,2" d="M343.578,-514.959C343.578,-484.734 343.578,-473.639 343.578,-439"/>
<polygon fill="black" stroke="black" points="340.078,-515 343.578,-525 347.078,-515 340.078,-515"/>
</g>
</g>
</svg>
